<?xml version="1.0" standalone="no"?>
<!DOCTYPE svg PUBLIC "-//W3C//DTD SVG 20010904//EN"
 "http://www.w3.org/TR/2001/REC-SVG-20010904/DTD/svg10.dtd">
<svg version="1.0" xmlns="http://www.w3.org/2000/svg"
 width="500.000000pt" height="500.000000pt" viewBox="0 0 500.000000 500.000000"
 preserveAspectRatio="xMidYMid meet">

<g transform="translate(0.000000,500.000000) scale(0.100000,-0.100000)"
fill="#000000" stroke="none">
<path d="M760 2500 l0 -480 1740 0 1740 0 0 480 0 480 -1740 0 -1740 0 0 -480z
m3450 0 l0 -450 -1715 0 -1715 0 0 450 0 450 1715 0 1715 0 0 -450z"/>
<path d="M850 2500 l0 -390 825 0 825 0 0 390 0 390 -825 0 -825 0 0 -390z
m856 120 c90 -44 100 -165 18 -229 -20 -15 -41 -21 -80 -21 -47 0 -59 4 -90
33 -70 64 -54 180 30 218 52 24 70 24 122 -1z m-556 -5 c0 -12 -13 -15 -55
-15 l-55 0 0 -45 0 -45 50 0 c38 0 50 -4 50 -15 0 -11 -12 -15 -50 -15 l-50 0
0 -55 c0 -48 -2 -55 -20 -55 -19 0 -20 7 -20 130 l0 130 75 0 c60 0 75 -3 75
-15z m255 -10 c35 -34 33 -78 -4 -115 -24 -25 -27 -32 -16 -47 48 -70 49 -73
29 -73 -11 0 -31 19 -49 45 -25 37 -35 45 -62 45 -32 0 -33 -1 -33 -45 0 -33
-4 -45 -15 -45 -13 0 -15 21 -15 130 l0 130 70 0 c62 0 74 -3 95 -25z m565
-73 l65 -94 3 96 c2 88 4 96 22 96 19 0 20 -7 20 -130 0 -166 -8 -168 -105
-31 l-70 100 -3 -100 c-2 -79 -6 -99 -17 -99 -12 0 -15 23 -15 131 0 162 6
164 100 31z m398 86 c-3 -7 -23 -14 -46 -16 l-42 -3 0 -115 c0 -107 -1 -114
-20 -114 -19 0 -20 7 -20 115 l0 115 -40 0 c-29 0 -40 4 -40 15 0 12 18 15
106 15 80 0 105 -3 102 -12z"/>
<path d="M1583 2585 c-54 -38 -50 -141 7 -170 59 -30 119 -12 146 43 13 29 14
41 5 73 -6 21 -21 45 -34 54 -28 19 -96 19 -124 0z"/>
<path d="M1270 2550 l0 -50 48 0 c26 0 52 4 58 8 20 14 25 45 9 68 -13 20 -24
24 -65 24 l-50 0 0 -50z"/>
<path d="M2680 2637 c-71 -36 -61 -114 19 -143 61 -23 77 -37 58 -53 -15 -12
-47 -5 -47 10 0 5 -18 9 -41 9 -37 0 -40 -2 -34 -22 9 -31 42 -58 74 -60 86
-4 131 22 131 77 0 40 -31 69 -87 84 -26 7 -43 18 -43 27 0 22 28 28 49 10 15
-14 81 -24 81 -12 0 26 -26 60 -55 71 -42 18 -72 19 -105 2z"/>
<path d="M3905 2631 c-54 -24 -80 -72 -73 -136 14 -118 162 -161 246 -71 59
65 39 170 -41 207 -52 23 -81 23 -132 0z m106 -69 c25 -21 30 -71 9 -96 -16
-21 -74 -20 -95 0 -25 25 -16 85 15 101 34 17 44 16 71 -5z"/>
<path d="M2870 2605 c0 -34 1 -35 40 -35 l40 0 0 -95 0 -95 35 0 35 0 0 95 0
95 40 0 c39 0 40 1 40 35 l0 35 -115 0 -115 0 0 -35z"/>
<path d="M3140 2541 c0 -84 3 -102 20 -124 36 -45 114 -54 167 -20 31 21 43
64 43 159 l0 84 -40 0 -39 0 -3 -92 c-3 -90 -4 -93 -27 -96 -38 -6 -51 22 -51
110 l0 78 -35 0 -35 0 0 -99z"/>
<path d="M3420 2511 l0 -131 70 0 c121 0 170 35 178 124 4 50 2 56 -31 92
l-35 39 -91 3 -91 4 0 -131z m151 49 c13 -7 19 -21 19 -45 0 -41 -22 -65 -61
-65 -29 0 -29 0 -29 60 0 58 1 60 26 60 14 0 34 -5 45 -10z"/>
<path d="M3710 2510 l0 -130 40 0 40 0 0 130 0 130 -40 0 -40 0 0 -130z"/>
</g>
</svg>
